<svg width="135" height="33" viewBox="0 0 135 33" fill="none" xmlns="http://www.w3.org/2000/svg">
<g clip-path="url(#clip0_606_688)">
<path d="M33.393 3.22218C33.974 1.04924 35.4216 0.123635 37.2582 0.123635C37.8359 0.110792 38.4101 0.215706 38.9464 0.432049C39.4826 0.648391 39.9697 0.971679 40.3783 1.38242C40.7869 1.79315 41.1085 2.28282 41.3237 2.8219C41.5389 3.36098 41.6433 3.93829 41.6305 4.51902C41.6394 5.06747 41.5613 5.61385 41.3991 6.13759L33.974 29.8568C33.6739 30.7719 33.0943 31.5685 32.3177 32.1332C31.541 32.6979 30.607 33.0019 29.6485 33.0019C28.69 33.0019 27.7559 32.6979 26.9793 32.1332C26.2026 31.5685 25.623 30.7719 25.3229 29.8568L21.0442 17.9279L16.9525 29.8568C16.6566 30.7652 16.0844 31.5572 15.3167 32.1211C14.549 32.685 13.6246 32.9924 12.6738 32.9999C11.7021 33.0374 10.7456 32.7489 9.95491 32.1798C9.16423 31.6108 8.58428 30.7936 8.30639 29.8568L0.369265 5.9396C0.161085 5.50838 0.0357951 5.04152 -1.80695e-05 4.56356C-0.0165131 3.97152 0.087822 3.38236 0.306552 2.83241C0.525283 2.28247 0.85377 1.7834 1.27175 1.36599C1.68974 0.948587 2.18836 0.62169 2.73686 0.405464C3.28536 0.189239 3.87211 0.0882698 4.46092 0.108785C5.37967 0.0597 6.28598 0.339584 7.01887 0.898719C7.75176 1.45785 8.26377 2.26004 8.46395 3.16278L12.8953 19.1158L17.0806 3.39047C17.6172 1.23238 19.0895 0.123635 21.2067 0.123635C22.1616 0.129786 23.0873 0.455823 23.8373 1.05018C24.5872 1.64453 25.1187 2.47327 25.3476 3.40532L29.4392 19.1307L33.393 3.22218Z" fill="#3703CC"/>
<path d="M79.1104 4.79642C79.1104 2.39084 81.5722 0.262451 83.7584 0.262451H88.0815C99.2584 0.262451 104.872 8.58794 104.872 16.7699C104.872 24.8627 99.4554 32.817 88.8151 32.817H83.7584C80.9518 32.817 79.1104 31.1044 79.1104 28.288V4.79642ZM88.8643 23.7985C93.5567 23.7985 96.0383 20.0565 96.0383 16.3096C96.0383 12.8695 93.7881 9.40464 88.8151 9.40464H88.0371V23.7985H88.8643Z" fill="#3703CC"/>
<path d="M124.97 26.5307H115.403L113.976 30.0896C113.104 32.0695 111.588 33 110.066 33C107.678 33 105.236 31.3369 105.236 28.7482C105.196 28.1299 105.307 27.5112 105.561 26.9465L116.506 2.80655C117.245 1.18798 118.21 0.123779 120.632 0.123779C122.981 0.123779 123.99 1.18798 124.68 2.85109L134.66 26.9465C134.905 27.5141 135.016 28.1305 134.985 28.7482C134.985 31.2231 132.592 33 130.199 33C128.23 33 126.935 32.0101 126.26 30.0896L124.97 26.5307ZM118.21 19.4526H122.533L120.564 13.5822L118.21 19.4526Z" fill="#3703CC"/>
<path d="M69.1445 7.03847C66.8679 7.03901 64.6307 6.44141 62.6546 5.3049C60.6786 4.1684 59.0323 2.53246 57.8789 0.559243C57.7789 0.374302 57.6273 0.22281 57.4427 0.123428C57.2581 0.0240457 57.0486 -0.0188859 56.84 -7.88704e-05C53.2817 0.432599 49.9609 2.02075 47.3821 4.52321C44.8032 7.02567 43.1071 10.3058 42.5512 13.8654C41.9954 17.425 42.6103 21.0698 44.3024 24.2462C45.9945 27.4226 48.6715 29.9572 51.9269 31.4651C55.1822 32.9729 58.8381 33.3717 62.3395 32.6009C65.8408 31.8301 68.9963 29.9318 71.3268 27.1941C73.6573 24.4565 75.0355 21.0292 75.2522 17.4326C75.4688 13.8359 74.512 10.2665 72.5272 7.26616C72.4065 7.09363 72.2382 6.96043 72.0431 6.88302C71.8479 6.8056 71.6345 6.78737 71.4292 6.83058C70.6752 6.96758 69.9107 7.03715 69.1445 7.03847Z" fill="#3703CC"/>
</g>
<defs>
<clipPath id="clip0_606_688">
<rect width="135" height="33" fill="white"/>
</clipPath>
</defs>
</svg>
